:SAMPLES-PER-SECOND 30
:FULLY-SPECIFIED
:DEGREES
287
root  -29.514 34.519 -1.35399 -4.1389 -50.1897 0.077179
RightUpLeg  -24.6444 -7.16427 -8.50935
RightLeg  59.8241 0.116187 -0.294277
RightFoot  -28.0568 0.262119 3.07791
RightToes  1.45519e-009 0 -3.6325e-017
Spine  29.9661 0.661794 9.36246
Spine1  3.45449 1.61693 6.72406
HEad  -32.2263 18.6815 -5.88648
LeftShoulder1  0.493642 1.45943 -17.4665
LeftArm  -21.7048 -25.6099 -66.6568
LeftForeArm  35.9024 -76.2249 -51.088
LeftHand  0.0778005 8.30426 4.50548
RightShoulder  0.411264 -1.79043 17.6698
RightArm  28.2701 10.6606 71.3111
RightForeArm  125.226 78.3631 121.795
RightHand  -0.28329 7.5041 -2.9047
LeftUpLeg  -35.0507 3.03481 8.61798
LeftLeg  54.0358 -2.19993 -2.77685
LeftFoot  -14.1282 -0.0450448 -5.31418
LeftToes  -2.53752e-010 -2.07034e-011 -2.70101e-011
288
root  -29.3504 34.5526 -1.98292 -0.171509 -51.7812 -2.50685
RightUpLeg  -27.9417 -7.02348 -5.42937
RightLeg  59.1812 0.364061 0.165222
RightFoot  -26.7118 0.0637983 1.81653
RightToes  1.45519e-009 0 -3.6325e-017
Spine  31.4056 0.753047 7.64531
Spine1  4.45538 1.31382 6.40286
HEad  -32.6354 20.5175 -7.23599
LeftShoulder1  0.422777 1.75737 -17.5293
LeftArm  -22.572 -26 -66.8731
LeftForeArm  38.0129 -76.381 -51.4004
LeftHand  -0.0131559 7.427 1.516
RightShoulder  0.450144 -1.61216 17.4161
RightArm  27.9669 11.0736 72.2711
RightForeArm  125.652 78.616 120.458
RightHand  -0.113072 7.38173 -1.39405
LeftUpLeg  -37.4758 3.4955 11.1751
LeftLeg  53.2633 -1.34785 -1.46257
LeftFoot  -12.4115 0.0207016 -5.85945
LeftToes  -2.53752e-010 -2.07034e-011 -2.70101e-011
289
root  -29.2132 34.5523 -2.52368 3.25967 -52.8312 -4.83731
RightUpLeg  -30.5826 -6.64855 -2.79802
RightLeg  58.7295 0.431084 0.277255
RightFoot  -25.5994 -0.0686105 0.844983
RightToes  1.45519e-009 0 -3.6325e-017
Spine  32.6887 1.03897 6.1558
Spine1  5.48235 1.1833 6.17545
HEad  -33.4538 22.2255 -9.40309
LeftShoulder1  0.446771 1.66848 -17.6972
LeftArm  -22.6467 -26.8923 -67.4714
LeftForeArm  34.4422 -76.0473 -50.3818
LeftHand  0.0875875 8.00328 5.44133
RightShoulder  0.423714 -1.68902 16.9366
RightArm  27.3594 11.2347 72.7597
RightForeArm  123.858 78.6132 119.893
RightHand  -0.149577 7.01101 -1.74891
LeftUpLeg  -39.3595 3.24401 13.5986
LeftLeg  52.5284 -0.633069 -0.419414
LeftFoot  -11.1553 0.0785289 -7.37592
LeftToes  -2.53752e-010 -2.07034e-011 -2.70101e-011
290
root  -29.1251 34.6062 -3.01684 6.30379 -53.7767 -7.00648
RightUpLeg  -32.528 -5.95205 -0.432033
RightLeg  57.9331 0.430324 0.266289
RightFoot  -24.475 -0.127644 0.327982
RightToes  1.45519e-009 0 -3.6325e-017
Spine  34.0492 1.32116 4.68461
Spine1  6.24928 1.24276 5.17203
HEad  -33.9649 22.106 -9.42971
LeftShoulder1  0.50662 1.35735 -16.8777
LeftArm  -23.0959 -27.1257 -68.5662
LeftForeArm  34.1388 -76.0522 -50.5414
LeftHand  0.0668497 7.73302 5.02742
RightShoulder  0.407653 -1.74903 16.822
RightArm  27.0397 11.3569 73.0352
RightForeArm  122.242 78.6464 119.156
RightHand  -0.172348 7.2745 -1.92796
LeftUpLeg  -40.5969 3.09298 15.8515
LeftLeg  51.5763 0.054337 0.531584
LeftFoot  -9.86256 0.167572 -8.4147
LeftToes  -2.53752e-010 -2.07034e-011 -2.70101e-011
291
root  -29.0587 34.6743 -3.39455 9.44643 -54.2779 -9.1609
RightUpLeg  -34.2872 -5.33463 1.70234
RightLeg  57.0261 0.269735 -0.0140086
RightFoot  -23.2561 -0.213223 -0.535227
RightToes  1.45519e-009 0 -3.6325e-017
Spine  34.745 1.53275 3.45091
Spine1  6.70776 1.12068 4.64543
HEad  -34.3423 22.4403 -9.16265
LeftShoulder1  0.549898 1.15698 -16.6946
LeftArm  -23.1979 -27.2912 -69.2425
LeftForeArm  33.8463 -75.891 -49.5247
LeftHand  0.0726426 7.59351 5.64419
RightShoulder  0.431132 -1.63206 16.5773
RightArm  26.6731 11.2587 72.9024
RightForeArm  122.686 78.7635 118.567
RightHand  -0.0392611 7.07909 -0.724863
LeftUpLeg  -41.8504 2.8809 17.8905
LeftLeg  50.601 0.699239 1.363
LeftFoot  -8.73749 0.26243 -9.2443
LeftToes  -2.53752e-010 -2.07034e-011 -2.70101e-011
292
root  -29.0194 34.7192 -3.69192 12.6517 -54.4046 -11.4045
RightUpLeg  -35.8542 -4.91119 3.75037
RightLeg  56.1951 0.117762 -0.262135
RightFoot  -22.1935 -0.271302 -1.27173
RightToes  1.45519e-009 0 -3.6325e-017
Spine  35.4976 1.68769 2.64123
Spine1  6.34386 1.01243 4.29959
HEad  -34.418 23.1269 -10.863
LeftShoulder1  0.56199 1.13456 -17.0085
LeftArm  -22.7495 -27.1296 -69.6388
LeftForeArm  32.9782 -75.7588 -48.973
LeftHand  0.0621991 6.97372 6.60867
RightShoulder  0.428524 -1.64442 16.5943
RightArm  26.4727 10.7797 72.5539
RightForeArm  123.304 78.6545 119.458
RightHand  -0.146107 6.95323 -1.72606
LeftUpLeg  -43.1741 2.69425 19.8839
LeftLeg  49.8709 1.24292 2.02217
LeftFoot  -7.77995 0.353928 -9.86983
LeftToes  -2.53752e-010 -2.07034e-011 -2.70101e-011
293
root  -28.9976 34.7811 -3.91907 15.4308 -54.6893 -13.0966
RightUpLeg  -37.2738 -4.41895 5.26735
RightLeg  55.2908 0.0978365 -0.287771
RightFoot  -21.3556 -0.285071 -1.60207
RightToes  1.45519e-009 0 -3.6325e-017
Spine  35.4915 2.06274 1.67897
Spine1  6.78466 1.04396 4.03495
HEad  -35.104 23.3968 -11.3714
LeftShoulder1  0.544567 1.24226 -17.4168
LeftArm  -22.083 -27.4438 -69.6053
LeftForeArm  32.7507 -75.62 -48.1643
LeftHand  0.0261251 6.40264 6.19459
RightShoulder  0.417208 -1.68331 16.4591
RightArm  26.0261 10.9384 72.3603
RightForeArm  123.958 78.601 120
RightHand  -0.0474397 6.79024 -0.796514
LeftUpLeg  -44.2678 2.99357 21.3364
LeftLeg  49.0685 1.60881 2.42129
LeftFoot  -6.94345 0.441512 -10.3993
LeftToes  -2.53752e-010 -2.07034e-011 -2.70101e-011
294
root  -28.9964 34.8457 -4.08802 17.8055 -54.7991 -14.657
RightUpLeg  -38.2316 -4.35775 6.6335
RightLeg  54.3735 0.25771 -0.0401998
RightFoot  -20.7738 -0.283828 -1.73617
RightToes  1.45519e-009 0 -3.6325e-017
Spine  35.5143 2.27635 0.851574
Spine1  7.14271 1.03142 3.59387
HEad  -35.6675 23.3215 -11.5339
LeftShoulder1  0.488698 1.52098 -17.9997
LeftArm  -21.4412 -27.6716 -69.2466
LeftForeArm  33.9413 -75.7329 -48.4474
LeftHand  0.063851 6.88545 6.98837
RightShoulder  0.423953 -1.65001 16.3986
RightArm  25.5627 11.1667 72.6137
RightForeArm  124.375 78.6289 119.966
RightHand  0.0267759 6.50772 -0.0859184
LeftUpLeg  -45.0671 3.31729 22.5897
LeftLeg  48.3689 1.91018 2.72885
LeftFoot  -6.20682 0.515173 -10.6431
LeftToes  -2.53752e-010 -2.07034e-011 -2.70101e-011
295
root  -28.9871 34.9068 -4.20385 19.675 -54.6367 -15.8817
RightUpLeg  -38.9281 -4.72894 7.76814
RightLeg  53.5611 0.511861 0.330321
RightFoot  -20.2599 -0.289873 -1.96157
RightToes  1.45519e-009 0 -3.6325e-017
Spine  35.5874 2.4451 0.384471
Spine1  7.24338 1.0698 3.29273
HEad  -35.8842 23.3059 -11.6385
LeftShoulder1  0.53198 1.34165 -17.9641
LeftArm  -21.3435 -27.5758 -68.9841
LeftForeArm  34.1047 -75.6981 -48.1655
LeftHand  0.140572 8.42599 6.80916
RightShoulder  0.392765 -1.79977 16.6342
RightArm  25.2471 11.2527 72.6396
RightForeArm  124.027 78.5956 120.054
RightHand  -0.0568444 6.8619 -0.88573
LeftUpLeg  -45.7585 3.44406 23.5612
LeftLeg  47.7602 2.14549 2.95175
LeftFoot  -5.53553 0.578842 -10.7365
LeftToes  -2.53752e-010 -2.07034e-011 -2.70101e-011
296
root  -28.9717 34.935 -4.25658 20.6216 -54.5868 -16.3743
RightUpLeg  -39.4376 -5.09285 8.29065
RightLeg  53.1947 0.755973 0.67546
RightFoot  -19.9058 -0.307098 -2.30131
RightToes  1.45519e-009 0 -3.6325e-017
Spine  35.7783 2.70471 -0.12032
Spine1  7.32628 1.20497 3.02243
HEad  -36.1525 23.1578 -11.1991
LeftShoulder1  0.5534 1.23342 -17.7259
LeftArm  -21.269 -27.3969 -69.2721
LeftForeArm  34.6716 -75.727 -48.1368
LeftHand  0.102314 8.45735 5.30691
RightShoulder  0.351743 -2.00357 17.106
RightArm  25.2045 11.4534 72.3461
RightForeArm  124.449 78.44 121.112
RightHand  -0.156467 6.91828 -1.82877
LeftUpLeg  -46.2272 3.56046 23.9375
LeftLeg  47.4796 2.26359 3.06211
LeftFoot  -5.24307 0.609726 -10.8364
LeftToes  -2.53752e-010 -2.07034e-011 -2.70101e-011
297
root  -28.9677 34.9626 -4.23327 20.7202 -54.1433 -16.3302
RightUpLeg  -39.469 -5.66862 8.40539
RightLeg  52.9793 0.853462 0.809583
RightFoot  -19.8617 -0.300104 -2.22348
RightToes  1.45519e-009 0 -3.6325e-017
Spine  36.0591 2.55118 -0.0179201
Spine1  7.43439 1.22802 2.43994
HEad  -36.0815 22.934 -10.7355
LeftShoulder1  0.57124 1.12703 -17.3572
LeftArm  -21.0203 -27.085 -69.5905
LeftForeArm  32.9868 -75.4439 -47.0272
LeftHand  0.0905262 7.45054 6.89559
RightShoulder  0.353818 -1.9894 17.0383
RightArm  24.708 11.4226 72.5316
RightForeArm  125.42 78.3875 121.717
RightHand  -0.129497 6.62219 -1.59867
LeftUpLeg  -46.5548 3.35353 23.8858
LeftLeg  47.4142 2.17326 2.95085
LeftFoot  -5.08359 0.586709 -10.1578
LeftToes  -2.53752e-010 -2.07034e-011 -2.70101e-011
